<svg xmlns="http://www.w3.org/2000/svg" viewBox="0 0 600 150" width="600" height="150" role="img">
<style>
.tt{fill:#111827;font-size:13px;font-weight:600;font-family:system-ui,sans-serif}
.sw{fill:#374151;font-size:10px;font-family:system-ui,sans-serif}
.sp{fill:#6b7280;font-size:10px;font-family:system-ui,sans-serif}
.st{fill:#6b7280;font-size:9px;font-family:system-ui,sans-serif}
</style>
<text x="16" y="20" class="tt">📝 Languages</text>
<rect x="16.0" y="36" width="188.75" height="24" fill="#3b82f6" rx="0"><title>C++: 33.2% (7 hrs 14 mins)</title></rect>
<text x="110.4" y="52.0" text-anchor="middle" fill="#fff" font-size="10" font-family="system-ui,sans-serif" font-weight="600">33.2%</text>
<rect x="204.7" y="36" width="98.66" height="24" fill="#10b981" rx="0"><title>Markdown: 17.4% (3 hrs 46 mins)</title></rect>
<text x="254.1" y="52.0" text-anchor="middle" fill="#fff" font-size="10" font-family="system-ui,sans-serif" font-weight="600">17.4%</text>
<rect x="303.4" y="36" width="68.96" height="24" fill="#f59e0b" rx="0"><title>Jupyter: 12.1% (2 hrs 38 mins)</title></rect>
<text x="337.9" y="52.0" text-anchor="middle" fill="#fff" font-size="10" font-family="system-ui,sans-serif" font-weight="600">12.1%</text>
<rect x="372.4" y="36" width="49.13" height="24" fill="#ef4444" rx="0"><title>Java: 8.7% (1 hr 52 mins)</title></rect>
<text x="396.9" y="52.0" text-anchor="middle" fill="#fff" font-size="10" font-family="system-ui,sans-serif" font-weight="600">8.7%</text>
<rect x="421.5" y="36" width="46.46" height="24" fill="#8b5cf6" rx="0"><title>C#: 8.2% (1 hr 46 mins)</title></rect>
<text x="444.7" y="52.0" text-anchor="middle" fill="#fff" font-size="10" font-family="system-ui,sans-serif" font-weight="600">8.2%</text>
<rect x="468.0" y="36" width="41.98" height="24" fill="#06b6d4" rx="0"><title>Python: 7.4% (1 hr 36 mins)</title></rect>
<text x="488.9" y="52.0" text-anchor="middle" fill="#fff" font-size="10" font-family="system-ui,sans-serif" font-weight="600">7.4%</text>
<rect x="509.9" y="36" width="27.72" height="24" fill="#f97316" rx="0"><title>JavaScript: 4.9% (1 hr 3 mins)</title></rect>
<rect x="537.7" y="36" width="14.09" height="24" fill="#84cc16" rx="0"><title>JSON: 2.5% (32 mins)</title></rect>
<rect x="551.7" y="36" width="8.35" height="24" fill="#ec4899" rx="0"><title>YAML: 1.5% (19 mins)</title></rect>
<rect x="560.1" y="36" width="6.82" height="24" fill="#6366f1" rx="0"><title>Git Config: 1.2% (15 mins)</title></rect>
<rect x="16" y="36" width="568" height="24" fill="none" stroke="#d1d5db" stroke-width="1" rx="4"/>
<rect x="16" y="75" width="8" height="8" rx="2" fill="#3b82f6"/>
<text x="28" y="82" class="sw">C++</text>
<text x="138" y="82" class="sp">33.2%</text>
<text x="178" y="82" class="st">7 hrs 14 mins</text>
<rect x="16" y="90" width="8" height="8" rx="2" fill="#10b981"/>
<text x="28" y="97" class="sw">Markdown</text>
<text x="138" y="97" class="sp">17.4%</text>
<text x="178" y="97" class="st">3 hrs 46 mins</text>
<rect x="16" y="105" width="8" height="8" rx="2" fill="#f59e0b"/>
<text x="28" y="112" class="sw">Jupyter</text>
<text x="138" y="112" class="sp">12.1%</text>
<text x="178" y="112" class="st">2 hrs 38 mins</text>
<rect x="16" y="120" width="8" height="8" rx="2" fill="#ef4444"/>
<text x="28" y="127" class="sw">Java</text>
<text x="138" y="127" class="sp">8.7%</text>
<text x="178" y="127" class="st">1 hr 52 mins</text>
<rect x="16" y="135" width="8" height="8" rx="2" fill="#8b5cf6"/>
<text x="28" y="142" class="sw">C#</text>
<text x="138" y="142" class="sp">8.2%</text>
<text x="178" y="142" class="st">1 hr 46 mins</text>
<rect x="316" y="75" width="8" height="8" rx="2" fill="#06b6d4"/>
<text x="328" y="82" class="sw">Python</text>
<text x="438" y="82" class="sp">7.4%</text>
<text x="478" y="82" class="st">1 hr 36 mins</text>
<rect x="316" y="90" width="8" height="8" rx="2" fill="#f97316"/>
<text x="328" y="97" class="sw">JavaScript</text>
<text x="438" y="97" class="sp">4.9%</text>
<text x="478" y="97" class="st">1 hr 3 mins</text>
<rect x="316" y="105" width="8" height="8" rx="2" fill="#84cc16"/>
<text x="328" y="112" class="sw">JSON</text>
<text x="438" y="112" class="sp">2.5%</text>
<text x="478" y="112" class="st">32 mins</text>
<rect x="316" y="120" width="8" height="8" rx="2" fill="#ec4899"/>
<text x="328" y="127" class="sw">YAML</text>
<text x="438" y="127" class="sp">1.5%</text>
<text x="478" y="127" class="st">19 mins</text>
<rect x="316" y="135" width="8" height="8" rx="2" fill="#6366f1"/>
<text x="328" y="142" class="sw">Git Config</text>
<text x="438" y="142" class="sp">1.2%</text>
<text x="478" y="142" class="st">15 mins</text>
</svg>