<svg xmlns="http://www.w3.org/2000/svg" viewBox="0 0 600 150" width="600" height="150" role="img">
<style>
.tt{fill:#111827;font-size:13px;font-weight:600;font-family:system-ui,sans-serif}
.sw{fill:#374151;font-size:10px;font-family:system-ui,sans-serif}
.sp{fill:#6b7280;font-size:10px;font-family:system-ui,sans-serif}
.st{fill:#6b7280;font-size:9px;font-family:system-ui,sans-serif}
</style>
<text x="16" y="20" class="tt">📝 Languages</text>
<rect x="16.0" y="36" width="241.57" height="24" fill="#3b82f6" rx="0"><title>Markdown: 42.5% (2 hrs 59 mins)</title></rect>
<text x="136.8" y="52.0" text-anchor="middle" fill="#fff" font-size="10" font-family="system-ui,sans-serif" font-weight="600">42.5%</text>
<rect x="257.6" y="36" width="103.66" height="24" fill="#10b981" rx="0"><title>Python: 18.2% (1 hr 17 mins)</title></rect>
<text x="309.4" y="52.0" text-anchor="middle" fill="#fff" font-size="10" font-family="system-ui,sans-serif" font-weight="600">18.2%</text>
<rect x="361.2" y="36" width="99.34" height="24" fill="#f59e0b" rx="0"><title>Java: 17.5% (1 hr 13 mins)</title></rect>
<text x="410.9" y="52.0" text-anchor="middle" fill="#fff" font-size="10" font-family="system-ui,sans-serif" font-weight="600">17.5%</text>
<rect x="460.6" y="36" width="19.14" height="24" fill="#ef4444" rx="0"><title>JavaScript: 3.4% (14 mins)</title></rect>
<rect x="479.7" y="36" width="16.47" height="24" fill="#8b5cf6" rx="0"><title>C#: 2.9% (12 mins)</title></rect>
<rect x="496.2" y="36" width="16.07" height="24" fill="#06b6d4" rx="0"><title>YAML: 2.8% (11 mins)</title></rect>
<rect x="512.3" y="36" width="15.45" height="24" fill="#f97316" rx="0"><title>Git Config: 2.7% (11 mins)</title></rect>
<rect x="527.7" y="36" width="14.43" height="24" fill="#84cc16" rx="0"><title>Bash: 2.5% (10 mins)</title></rect>
<rect x="542.1" y="36" width="10.96" height="24" fill="#ec4899" rx="0"><title>JSON: 1.9% (8 mins)</title></rect>
<rect x="553.1" y="36" width="7.21" height="24" fill="#6366f1" rx="0"><title>Groovy: 1.3% (5 mins)</title></rect>
<rect x="16" y="36" width="568" height="24" fill="none" stroke="#d1d5db" stroke-width="1" rx="4"/>
<rect x="16" y="75" width="8" height="8" rx="2" fill="#3b82f6"/>
<text x="28" y="82" class="sw">Markdown</text>
<text x="138" y="82" class="sp">42.5%</text>
<text x="178" y="82" class="st">2 hrs 59 mins</text>
<rect x="16" y="90" width="8" height="8" rx="2" fill="#10b981"/>
<text x="28" y="97" class="sw">Python</text>
<text x="138" y="97" class="sp">18.2%</text>
<text x="178" y="97" class="st">1 hr 17 mins</text>
<rect x="16" y="105" width="8" height="8" rx="2" fill="#f59e0b"/>
<text x="28" y="112" class="sw">Java</text>
<text x="138" y="112" class="sp">17.5%</text>
<text x="178" y="112" class="st">1 hr 13 mins</text>
<rect x="16" y="120" width="8" height="8" rx="2" fill="#ef4444"/>
<text x="28" y="127" class="sw">JavaScript</text>
<text x="138" y="127" class="sp">3.4%</text>
<text x="178" y="127" class="st">14 mins</text>
<rect x="16" y="135" width="8" height="8" rx="2" fill="#8b5cf6"/>
<text x="28" y="142" class="sw">C#</text>
<text x="138" y="142" class="sp">2.9%</text>
<text x="178" y="142" class="st">12 mins</text>
<rect x="316" y="75" width="8" height="8" rx="2" fill="#06b6d4"/>
<text x="328" y="82" class="sw">YAML</text>
<text x="438" y="82" class="sp">2.8%</text>
<text x="478" y="82" class="st">11 mins</text>
<rect x="316" y="90" width="8" height="8" rx="2" fill="#f97316"/>
<text x="328" y="97" class="sw">Git Config</text>
<text x="438" y="97" class="sp">2.7%</text>
<text x="478" y="97" class="st">11 mins</text>
<rect x="316" y="105" width="8" height="8" rx="2" fill="#84cc16"/>
<text x="328" y="112" class="sw">Bash</text>
<text x="438" y="112" class="sp">2.5%</text>
<text x="478" y="112" class="st">10 mins</text>
<rect x="316" y="120" width="8" height="8" rx="2" fill="#ec4899"/>
<text x="328" y="127" class="sw">JSON</text>
<text x="438" y="127" class="sp">1.9%</text>
<text x="478" y="127" class="st">8 mins</text>
<rect x="316" y="135" width="8" height="8" rx="2" fill="#6366f1"/>
<text x="328" y="142" class="sw">Groovy</text>
<text x="438" y="142" class="sp">1.3%</text>
<text x="478" y="142" class="st">5 mins</text>
</svg>