<svg xmlns="http://www.w3.org/2000/svg" viewBox="0 0 600 200" width="600" height="200" role="img">
<style>
@keyframes g{from{transform:scaleY(0)}to{transform:scaleY(1)}}
.grid{stroke:#e5e7eb;stroke-width:.5}
.tick{fill:#6b7280;font-size:10px;font-family:system-ui,sans-serif}
.lab{fill:#374151;font-size:10px;font-family:system-ui,sans-serif;text-anchor:middle}
.val{fill:#6b7280;font-size:9px;font-family:system-ui,sans-serif;text-anchor:middle}
.b0{animation:g 2.0s 0.00s ease-out forwards;fill:#3b82f6;rx:3;transform-origin:89.0px 168px}
.b0:hover{fill:#2563eb}
.b1{animation:g 2.0s 0.25s ease-out forwards;fill:#3b82f6;rx:3;transform-origin:167.0px 168px}
.b1:hover{fill:#2563eb}
.b2{animation:g 2.0s 0.50s ease-out forwards;fill:#3b82f6;rx:3;transform-origin:245.0px 168px}
.b2:hover{fill:#2563eb}
.b3{animation:g 2.0s 0.75s ease-out forwards;fill:#3b82f6;rx:3;transform-origin:323.0px 168px}
.b3:hover{fill:#2563eb}
.b4{animation:g 2.0s 1.00s ease-out forwards;fill:#3b82f6;rx:3;transform-origin:401.0px 168px}
.b4:hover{fill:#2563eb}
.b5{animation:g 2.0s 1.25s ease-out forwards;fill:#3b82f6;rx:3;transform-origin:479.0px 168px}
.b5:hover{fill:#2563eb}
.b6{animation:g 2.0s 1.50s ease-out forwards;fill:#3b82f6;rx:3;transform-origin:557.0px 168px}
.b6:hover{fill:#2563eb}
</style>
<line x1="50" y1="168.0" x2="588" y2="168.0" class="grid"/>
<text x="46" y="171.0" class="tick" text-anchor="end">0.0h</text>
<line x1="50" y1="128.0" x2="588" y2="128.0" class="grid"/>
<text x="46" y="131.0" class="tick" text-anchor="end">0.2h</text>
<line x1="50" y1="88.0" x2="588" y2="88.0" class="grid"/>
<text x="46" y="91.0" class="tick" text-anchor="end">0.4h</text>
<line x1="50" y1="48.0" x2="588" y2="48.0" class="grid"/>
<text x="46" y="51.0" class="tick" text-anchor="end">0.6h</text>
<line x1="50" y1="8.0" x2="588" y2="8.0" class="grid"/>
<text x="46" y="11.0" class="tick" text-anchor="end">0.7h</text>
<rect x="55.0" y="168.0" width="68" height="0.0" class="b0"><title>08-13: 0.0h</title></rect>
<text x="89.0" y="190" class="lab">08-13</text>
<rect x="133.0" y="8.0" width="68" height="160.0" class="b1"><title>08-14: 0.7h</title></rect>
<text x="167.0" y="5.0" class="val">44m</text>
<text x="167.0" y="190" class="lab">08-14</text>
<rect x="211.0" y="54.7" width="68" height="113.3" class="b2"><title>08-15: 0.5h</title></rect>
<text x="245.0" y="51.7" class="val">31m</text>
<text x="245.0" y="190" class="lab">08-15</text>
<rect x="289.0" y="168.0" width="68" height="0.0" class="b3"><title>08-16: 0.0h</title></rect>
<text x="323.0" y="190" class="lab">08-16</text>
<rect x="367.0" y="168.0" width="68" height="0.0" class="b4"><title>08-17: 0.0h</title></rect>
<text x="401.0" y="190" class="lab">08-17</text>
<rect x="445.0" y="168.0" width="68" height="0.0" class="b5"><title>08-18: 0.0h</title></rect>
<text x="479.0" y="190" class="lab">08-18</text>
<rect x="523.0" y="168.0" width="68" height="0.0" class="b6"><title>08-19: 0.0h</title></rect>
<text x="557.0" y="190" class="lab">08-19</text>
</svg>