<svg xmlns="http://www.w3.org/2000/svg" viewBox="0 0 600 150" width="600" height="150" role="img">
<style>
.tt{fill:#111827;font-size:13px;font-weight:600;font-family:system-ui,sans-serif}
.sw{fill:#374151;font-size:10px;font-family:system-ui,sans-serif}
.sp{fill:#6b7280;font-size:10px;font-family:system-ui,sans-serif}
.st{fill:#6b7280;font-size:9px;font-family:system-ui,sans-serif}
</style>
<text x="16" y="20" class="tt">📝 Languages</text>
<rect x="16.0" y="36" width="171.99" height="24" fill="#3b82f6" rx="0"><title>Markdown: 30.3% (3 hrs 40 mins)</title></rect>
<text x="102.0" y="52.0" text-anchor="middle" fill="#fff" font-size="10" font-family="system-ui,sans-serif" font-weight="600">30.3%</text>
<rect x="188.0" y="36" width="123.82" height="24" fill="#10b981" rx="0"><title>Jupyter: 21.8% (2 hrs 38 mins)</title></rect>
<text x="249.9" y="52.0" text-anchor="middle" fill="#fff" font-size="10" font-family="system-ui,sans-serif" font-weight="600">21.8%</text>
<rect x="311.8" y="36" width="88.89" height="24" fill="#f59e0b" rx="0"><title>Python: 15.7% (1 hr 53 mins)</title></rect>
<text x="356.3" y="52.0" text-anchor="middle" fill="#fff" font-size="10" font-family="system-ui,sans-serif" font-weight="600">15.7%</text>
<rect x="400.7" y="36" width="84.46" height="24" fill="#ef4444" rx="0"><title>Java: 14.9% (1 hr 48 mins)</title></rect>
<text x="442.9" y="52.0" text-anchor="middle" fill="#fff" font-size="10" font-family="system-ui,sans-serif" font-weight="600">14.9%</text>
<rect x="485.2" y="36" width="22.10" height="24" fill="#8b5cf6" rx="0"><title>JSON: 3.9% (28 mins)</title></rect>
<rect x="507.3" y="36" width="15.05" height="24" fill="#06b6d4" rx="0"><title>YAML: 2.6% (19 mins)</title></rect>
<rect x="522.3" y="36" width="12.27" height="24" fill="#f97316" rx="0"><title>Git Config: 2.2% (15 mins)</title></rect>
<rect x="534.6" y="36" width="11.13" height="24" fill="#84cc16" rx="0"><title>JavaScript: 2.0% (14 mins)</title></rect>
<rect x="545.7" y="36" width="9.54" height="24" fill="#ec4899" rx="0"><title>C#: 1.7% (12 mins)</title></rect>
<rect x="555.3" y="36" width="8.58" height="24" fill="#6366f1" rx="0"><title>Bash: 1.5% (11 mins)</title></rect>
<rect x="16" y="36" width="568" height="24" fill="none" stroke="#d1d5db" stroke-width="1" rx="4"/>
<rect x="16" y="75" width="8" height="8" rx="2" fill="#3b82f6"/>
<text x="28" y="82" class="sw">Markdown</text>
<text x="138" y="82" class="sp">30.3%</text>
<text x="178" y="82" class="st">3 hrs 40 mins</text>
<rect x="16" y="90" width="8" height="8" rx="2" fill="#10b981"/>
<text x="28" y="97" class="sw">Jupyter</text>
<text x="138" y="97" class="sp">21.8%</text>
<text x="178" y="97" class="st">2 hrs 38 mins</text>
<rect x="16" y="105" width="8" height="8" rx="2" fill="#f59e0b"/>
<text x="28" y="112" class="sw">Python</text>
<text x="138" y="112" class="sp">15.7%</text>
<text x="178" y="112" class="st">1 hr 53 mins</text>
<rect x="16" y="120" width="8" height="8" rx="2" fill="#ef4444"/>
<text x="28" y="127" class="sw">Java</text>
<text x="138" y="127" class="sp">14.9%</text>
<text x="178" y="127" class="st">1 hr 48 mins</text>
<rect x="16" y="135" width="8" height="8" rx="2" fill="#8b5cf6"/>
<text x="28" y="142" class="sw">JSON</text>
<text x="138" y="142" class="sp">3.9%</text>
<text x="178" y="142" class="st">28 mins</text>
<rect x="316" y="75" width="8" height="8" rx="2" fill="#06b6d4"/>
<text x="328" y="82" class="sw">YAML</text>
<text x="438" y="82" class="sp">2.6%</text>
<text x="478" y="82" class="st">19 mins</text>
<rect x="316" y="90" width="8" height="8" rx="2" fill="#f97316"/>
<text x="328" y="97" class="sw">Git Config</text>
<text x="438" y="97" class="sp">2.2%</text>
<text x="478" y="97" class="st">15 mins</text>
<rect x="316" y="105" width="8" height="8" rx="2" fill="#84cc16"/>
<text x="328" y="112" class="sw">JavaScript</text>
<text x="438" y="112" class="sp">2.0%</text>
<text x="478" y="112" class="st">14 mins</text>
<rect x="316" y="120" width="8" height="8" rx="2" fill="#ec4899"/>
<text x="328" y="127" class="sw">C#</text>
<text x="438" y="127" class="sp">1.7%</text>
<text x="478" y="127" class="st">12 mins</text>
<rect x="316" y="135" width="8" height="8" rx="2" fill="#6366f1"/>
<text x="328" y="142" class="sw">Bash</text>
<text x="438" y="142" class="sp">1.5%</text>
<text x="478" y="142" class="st">11 mins</text>
</svg>